<svg xmlns="http://www.w3.org/2000/svg" viewBox="0 0 36 36" width="36" height="36">
    <g>
    <linearGradient id="shieldLeft" x1="100%" y1="0%" x2="0%" y2="100%">
        <stop offset="0%" stop-color="#a855f7" />
        <stop offset="100%" stop-color="#4f46e5" />
    </linearGradient>
    <path d="M 18,2 C 11,2 2,4.5 2,8.5 L 2,18 C 2,26.5 11,31.5 18,34 Z" fill="url(#shieldLeft)" />

    <linearGradient id="shieldRight" x1="0%" y1="0%" x2="100%" y2="100%">
        <stop offset="0%" stop-color="#c084fc" />
        <stop offset="100%" stop-color="#a855f7" />
    </linearGradient>
    <path d="M 18,2 C 25,2 34,4.5 34,8.5 L 34,18 C 34,26.5 25,31.5 18,34 Z" fill="url(#shieldRight)" />

    <path d="M 18,2 C 23,2 31,4 32,7.5 L 18,14 L 4,7.5 C 5,4 13,2 18,2 Z" fill="#ffffff" opacity="0.15" />
    </g>

    <g>
    <path d="M 11,7 h 3 v 18 h -3 Z" fill="#1e1b4b" opacity="0.25" />
    <path d="M 11.5,7.5 h 3 v 17 h -3 Z" fill="#FFFFFF" />

    <path d="M 22.8,7 h 3.5 L 19.5,14.8 L 16.5,11.5 Z" fill="#E2E8F0" />
    <path d="M 19.5,14.8 L 26.5,25 h -3.6 L 17,17.2 Z" fill="#FFFFFF" />
    <path d="M 17,17.2 L 15,19.5 v -3.8 Z" fill="#CBD5E1" />
    </g>
</svg>